# xmcd
#
# Track frame offsets:
#	150
#	13445
#	27615
#	44407
#	60622
#	73877
#	93547
#	107185
#	123762
#	140352
#
# Disc length: 2042 seconds
#
# Revision: 0
# Processed by: cddbd v1.5.2PL0 Copyright (c) Steve Scherf et al.
# Submitted via: dBpowerAMP V4.0
#
DISCID=9507f80a
DTITLE=Exile - Exile
DYEAR=1900
DGENRE=
TTITLE0=Take Me To The River
TTITLE1=Woke Up In Love
TTITLE2=Red Dancing Shoes
TTITLE3=We've Still Got Love
TTITLE4=I Just Came Back To Break My Heart Again
TTITLE5=This Could Be The Start Of Something Good
TTITLE6=After All These Years (I'm Still Chasing You)
TTITLE7=High Cost Of Leaving
TTITLE8=I Don't Want To Be A Memory
TTITLE9=Here I Go Again
EXTD=
EXTT0=
EXTT1=
EXTT2=
EXTT3=
EXTT4=
EXTT5=
EXTT6=
EXTT7=
EXTT8=
EXTT9=
PLAYORDER=
